<?xml version="1.0" encoding="UTF-8"?>
<!DOCTYPE svg PUBLIC "-//W3C//DTD SVG 1.1//EN" "http://www.w3.org/Graphics/SVG/1.1/DTD/svg11.dtd">
<!-- Creator: CorelDRAW 2021 (64-Bit) -->
<svg xmlns="http://www.w3.org/2000/svg" xml:space="preserve" width="20mm" height="20mm" version="1.1" style="shape-rendering:geometricPrecision; text-rendering:geometricPrecision; image-rendering:optimizeQuality; fill-rule:evenodd; clip-rule:evenodd"
viewBox="0 0 2000 2000"
 xmlns:xlink="http://www.w3.org/1999/xlink"
 xmlns:xodm="http://www.corel.com/coreldraw/odm/2003">
 <defs>
  <style type="text/css">
   <![CDATA[
    .fil0 {fill:url(#id0)}
   ]]>
  </style>
  <linearGradient id="id0" gradientUnits="userSpaceOnUse" x1="1824.61" y1="1812.16" x2="107.21" y2="168.85">
   <stop offset="0" style="stop-opacity:1; stop-color:#0B98F9"/>
   <stop offset="1" style="stop-opacity:1; stop-color:#81DFFF"/>
  </linearGradient>
 </defs>
 <g id="Layer_x0020_1">
  <metadata id="CorelCorpID_0Corel-Layer"/>
  <path class="fil0" d="M205.04 189.05l725.69 0c17.79,0 32.33,14.55 32.33,32.33l0 725.69c0,17.78 -14.54,32.33 -32.33,32.33l-725.69 0c-17.78,0 -32.33,-14.55 -32.33,-32.33l0 -725.69c0,-17.78 14.55,-32.33 32.33,-32.33zm844.27 0l725.7 0c17.78,0 32.32,14.55 32.32,32.33l0 725.69c0,17.78 -14.54,32.33 -32.32,32.33l-725.7 0c-17.78,0 -32.33,-14.55 -32.33,-32.33l0 -725.69c0,-17.78 14.55,-32.33 32.33,-32.33zm-844.27 841.69l725.69 0c17.79,0 32.33,14.55 32.33,32.33l0 725.69c0,17.78 -14.54,32.33 -32.33,32.33l-725.69 0c-17.78,0 -32.33,-14.55 -32.33,-32.33l0 -725.69c0,-17.78 14.55,-32.33 32.33,-32.33zm844.27 0l725.7 0c17.78,0 32.32,14.55 32.32,32.33l0 725.69c0,17.78 -14.54,32.33 -32.32,32.33l-725.7 0c-17.78,0 -32.33,-14.55 -32.33,-32.33l0 -725.69c0,-17.78 14.55,-32.33 32.33,-32.33z"/>
 </g>
</svg>
